<svg xmlns="http://www.w3.org/2000/svg" viewBox="0 0 48 48" fill="none">
  <!-- GHEC: Cloud + orbit rings suggesting enterprise scale -->
  <circle cx="24" cy="24" r="22" fill="#38bdf8" fill-opacity="0.12" stroke="#38bdf8" stroke-width="1.5" stroke-opacity="0.4"/>
  <!-- Cloud shape -->
  <path d="M14 28c-3.3 0-6-2.7-6-6 0-2.9 2-5.4 4.8-6C13.5 13.4 16.6 11 20 11c3.8 0 7 2.6 7.8 6.1C29.6 17.4 31 19.1 31 21c0 1.7-.9 3.2-2.2 4.1M14 28h18.5c2.5 0 4.5-2 4.5-4.5S35 19 32.5 19c-.3 0-.5 0-.8.1" stroke="#38bdf8" stroke-width="2" stroke-linecap="round" stroke-linejoin="round"/>
  <!-- Server/node dots below cloud -->
  <circle cx="18" cy="36" r="2" fill="#38bdf8" fill-opacity="0.7"/>
  <circle cx="24" cy="36" r="2" fill="#38bdf8" fill-opacity="0.7"/>
  <circle cx="30" cy="36" r="2" fill="#38bdf8" fill-opacity="0.7"/>
  <line x1="18" y1="28" x2="18" y2="34" stroke="#38bdf8" stroke-width="1.5" stroke-opacity="0.5"/>
  <line x1="24" y1="28" x2="24" y2="34" stroke="#38bdf8" stroke-width="1.5" stroke-opacity="0.5"/>
  <line x1="30" y1="28" x2="30" y2="34" stroke="#38bdf8" stroke-width="1.5" stroke-opacity="0.5"/>
</svg>
